<svg xmlns="http://www.w3.org/2000/svg" width="1100" height="360" viewBox="0 0 1100 360">
  <rect width="1100" height="360" rx="24" fill="#0d1117"/>
  <text x="44" y="58" fill="#f8fafc" font-family="Arial" font-size="28" font-weight="700">Expertise Dashboard</text>
  <text x="44" y="86" fill="#8b949e" font-family="Arial" font-size="15">Visual-first engineering capability map</text>
  <rect x="44" y="116" width="310" height="88" rx="18" fill="#111827" stroke="#7c3aed"/>
  <text x="72" y="152" fill="#a78bfa" font-family="Arial" font-size="18" font-weight="700">Frontend Engineering</text>
  <text x="72" y="180" fill="#c9d1d9" font-family="Arial" font-size="14">React · Vue · TypeScript · UI Architecture</text>
  <circle cx="320" cy="160" r="18" fill="#7c3aed"/>
  <text x="314" y="166" fill="#fff" font-family="Arial" font-size="16" font-weight="700">1</text>
  <rect x="394" y="116" width="310" height="88" rx="18" fill="#111827" stroke="#06b6d4"/>
  <text x="422" y="152" fill="#67e8f9" font-family="Arial" font-size="18" font-weight="700">B-end Systems</text>
  <text x="422" y="180" fill="#c9d1d9" font-family="Arial" font-size="14">Forms · Tables · Permission · Workflow</text>
  <circle cx="670" cy="160" r="18" fill="#06b6d4"/>
  <text x="664" y="166" fill="#0d1117" font-family="Arial" font-size="16" font-weight="700">2</text>
  <rect x="744" y="116" width="310" height="88" rx="18" fill="#111827" stroke="#22c55e"/>
  <text x="772" y="152" fill="#22c55e" font-family="Arial" font-size="18" font-weight="700">Full-stack Delivery</text>
  <text x="772" y="180" fill="#c9d1d9" font-family="Arial" font-size="14">Spring Boot · Node.js · MySQL · Redis</text>
  <circle cx="1020" cy="160" r="18" fill="#22c55e"/>
  <text x="1014" y="166" fill="#0d1117" font-family="Arial" font-size="16" font-weight="700">3</text>
  <rect x="44" y="232" width="310" height="88" rx="18" fill="#111827" stroke="#f59e0b"/>
  <text x="72" y="268" fill="#fbbf24" font-family="Arial" font-size="18" font-weight="700">DevOps Workflow</text>
  <text x="72" y="296" fill="#c9d1d9" font-family="Arial" font-size="14">Docker · Nginx · Jenkins · Linux</text>
  <circle cx="320" cy="276" r="18" fill="#f59e0b"/>
  <text x="314" y="282" fill="#0d1117" font-family="Arial" font-size="16" font-weight="700">4</text>
  <rect x="394" y="232" width="310" height="88" rx="18" fill="#111827" stroke="#ec4899"/>
  <text x="422" y="268" fill="#f472b6" font-family="Arial" font-size="18" font-weight="700">AI-assisted Work</text>
  <text x="422" y="296" fill="#c9d1d9" font-family="Arial" font-size="14">Agent · CLI · Debugging · Automation</text>
  <circle cx="670" cy="276" r="18" fill="#ec4899"/>
  <text x="664" y="282" fill="#fff" font-family="Arial" font-size="16" font-weight="700">5</text>
  <rect x="744" y="232" width="310" height="88" rx="18" fill="#111827" stroke="#ef4444"/>
  <text x="772" y="268" fill="#f87171" font-family="Arial" font-size="18" font-weight="700">Product Thinking</text>
  <text x="772" y="296" fill="#c9d1d9" font-family="Arial" font-size="14">Reliable · Practical · Maintainable</text>
  <circle cx="1020" cy="276" r="18" fill="#ef4444"/>
  <text x="1014" y="282" fill="#fff" font-family="Arial" font-size="16" font-weight="700">6</text>
</svg>
