<svg xmlns="http://www.w3.org/2000/svg" width="520" height="220" viewBox="0 0 520 220">
  <rect x="1" y="1" width="518" height="218" rx="16" fill="#141321" stroke="#30363d"/>
  <text x="28" y="42" fill="#f8fafc" font-family="Arial" font-size="22" font-weight="700">Top Languages</text>
  <text x="28" y="66" fill="#8b949e" font-family="Arial" font-size="13">Local SVG layout · stable display</text>
  <circle cx="96" cy="135" r="58" fill="#3178c6"/>
  <path d="M96 77 A58 58 0 0 1 151 154 L96 135 Z" fill="#f7df1e"/>
  <path d="M151 154 A58 58 0 0 1 63 184 L96 135 Z" fill="#4fc08d"/>
  <path d="M63 184 A58 58 0 0 1 49 101 L96 135 Z" fill="#61dafb"/>
  <circle cx="96" cy="135" r="34" fill="#141321"/>
  <rect x="190" y="92" width="16" height="16" rx="4" fill="#3178c6"/><text x="216" y="105" fill="#c9d1d9" font-family="Arial" font-size="14">TypeScript / JavaScript</text>
  <rect x="190" y="122" width="16" height="16" rx="4" fill="#4fc08d"/><text x="216" y="135" fill="#c9d1d9" font-family="Arial" font-size="14">Vue</text>
  <rect x="190" y="152" width="16" height="16" rx="4" fill="#61dafb"/><text x="216" y="165" fill="#c9d1d9" font-family="Arial" font-size="14">React / Frontend</text>
  <rect x="190" y="182" width="16" height="16" rx="4" fill="#f7df1e"/><text x="216" y="195" fill="#c9d1d9" font-family="Arial" font-size="14">Node.js / Tools</text>
</svg>
