<svg xmlns="http://www.w3.org/2000/svg" width="520" height="220" viewBox="0 0 520 220">
  <rect x="1" y="1" width="518" height="218" rx="16" fill="#141321" stroke="#30363d"/>
  <text x="28" y="42" fill="#f8fafc" font-family="Arial" font-size="22" font-weight="700">Top Languages</text>
  <text x="28" y="66" fill="#8b949e" font-family="Arial" font-size="13">Based on public repositories · 2026-07-22 03:54 UTC</text>
  <rect x="170" y="94" width="250" height="10" rx="5" fill="#30363d"/><rect x="170" y="94" width="50" height="10" rx="5" fill="#3178c6"/><rect x="170" y="116" width="250" height="10" rx="5" fill="#30363d"/><rect x="170" y="116" width="50" height="10" rx="5" fill="#f7df1e"/><rect x="170" y="138" width="250" height="10" rx="5" fill="#30363d"/><rect x="170" y="138" width="50" height="10" rx="5" fill="#4fc08d"/><rect x="170" y="160" width="250" height="10" rx="5" fill="#30363d"/><rect x="170" y="160" width="50" height="10" rx="5" fill="#61dafb"/><rect x="170" y="182" width="250" height="10" rx="5" fill="#30363d"/><rect x="170" y="182" width="33" height="10" rx="5" fill="#ff6ec7"/><rect x="170" y="204" width="250" height="10" rx="5" fill="#30363d"/><rect x="170" y="204" width="16" height="10" rx="5" fill="#7c3aed"/>
  <rect x="48" y="92" width="14" height="14" rx="4" fill="#3178c6"/><text x="72" y="104" fill="#c9d1d9" font-family="Arial" font-size="14">Other</text><text x="428" y="104" fill="#8b949e" font-family="Arial" font-size="13">3</text><rect x="48" y="114" width="14" height="14" rx="4" fill="#f7df1e"/><text x="72" y="126" fill="#c9d1d9" font-family="Arial" font-size="14">Vue</text><text x="428" y="126" fill="#8b949e" font-family="Arial" font-size="13">3</text><rect x="48" y="136" width="14" height="14" rx="4" fill="#4fc08d"/><text x="72" y="148" fill="#c9d1d9" font-family="Arial" font-size="14">PHP</text><text x="428" y="148" fill="#8b949e" font-family="Arial" font-size="13">3</text><rect x="48" y="158" width="14" height="14" rx="4" fill="#61dafb"/><text x="72" y="170" fill="#c9d1d9" font-family="Arial" font-size="14">Java</text><text x="428" y="170" fill="#8b949e" font-family="Arial" font-size="13">3</text><rect x="48" y="180" width="14" height="14" rx="4" fill="#ff6ec7"/><text x="72" y="192" fill="#c9d1d9" font-family="Arial" font-size="14">HTML</text><text x="428" y="192" fill="#8b949e" font-family="Arial" font-size="13">2</text><rect x="48" y="202" width="14" height="14" rx="4" fill="#7c3aed"/><text x="72" y="214" fill="#c9d1d9" font-family="Arial" font-size="14">Python</text><text x="428" y="214" fill="#8b949e" font-family="Arial" font-size="13">1</text>
</svg>